P2
18 7
15
1  0  3  3  0  0  0  7  0  0  7  0  0 11 11 11  0  0
2  3  0  0  3  0  0  7  0  0  7  0  0 11  0  0 11  0
3  3  0  0  3  0  0  7  0  0  7  0  0 11  0  0 11  0
4  3  3  3  3  0  0  7  7  7  7  0  0 11 11 11  0  0
5  3  0  0  3  0  0  7  0  0  7  0  0 11  0  0 11  0
6  3  0  0  3  0  0  7  0  0  7  0  0 11  0  0 11  0
7  3  0  0  3  0  0  7  0  0  7  0  0 11 11 11  0  0
